<svg t="1670397131882" class="icon" viewBox="0 0 1024 1024" version="1.1" xmlns="http://www.w3.org/2000/svg" p-id="1606" width="16" height="16"><path d="M511.808 96c-11.68 0-23.36 2.88-33.44 8.64L161.28 287.68C140.8 299.52 128 321.92 128 345.6v332.16c0 24 12.8 46.08 33.28 57.92l83.2 48c40.32 19.84 54.72 19.84 72.96 19.84 59.84 0 94.08-36.16 94.08-98.88V361.92a9.28 9.28 0 0 0-9.28-9.28h-40a9.152 9.152 0 0 0-9.28 9.28v342.4c0 28.16-29.12 55.68-76.16 32.32l-87.04-50.24a9.696 9.696 0 0 1-5.12-8.64V345.92c0-3.84 1.92-7.04 5.12-8.96l317.12-183.04a9.28 9.28 0 0 1 9.92 0l317.12 183.04c3.2 1.92 5.12 5.12 5.12 8.64v332.16c0 3.52-1.92 7.04-4.8 8.64l-317.44 183.36a10.88 10.88 0 0 1-9.92 0l-81.6-48.32a7.36 7.36 0 0 0-7.68-0.64c-22.72 12.8-26.88 14.4-48 21.76-5.12 1.6-13.12 4.8 2.88 13.76l105.92 62.72c10.24 5.76 21.76 8.96 33.28 8.96 11.84 0 23.36-3.2 33.6-8.96l317.44-183.36c20.48-11.84 33.28-33.92 33.28-57.92V345.92c0-24-12.8-46.08-33.28-57.92l-317.44-183.36c-10.112-5.76-21.76-8.64-33.472-8.64z m85.312 256.192c-90.56 0-144.64 38.4-144.64 102.4 0 69.44 53.76 88.576 140.8 97.216 104 10.24 112 25.664 112 46.144 0 35.2-28.48 50.24-95.36 50.24-84.16 0-102.72-21.152-108.8-62.752a8.96 8.96 0 0 0-8.96-7.68h-41.28a8.96 8.96 0 0 0-8.96 8.96c0 53.44 29.12 117.12 168 117.12 100.48 0 158.08-39.68 158.08-108.8 0-68.48-46.4-86.72-143.68-99.84-98.88-12.8-108.8-19.52-108.8-42.56 0-19.2 8.64-44.48 81.6-44.48 64.96 0 89.28 14.08 99.2 57.92 0.96 4.16 4.48 7.36 8.96 7.36h41.28c2.56 0 4.8-1.28 6.72-3.2a8.64 8.64 0 0 0 2.24-7.04c-6.4-75.52-56.64-111.04-158.4-111.04z" p-id="1607" fill="#515151"></path></svg>